<?xml version="1.0" encoding="UTF-8"?>
<svg version="1.1" xmlns="http://www.w3.org/2000/svg" width="1536" height="1024">
<path d="M0 0 C506.88 0 1013.76 0 1536 0 C1536 337.92 1536 675.84 1536 1024 C1029.12 1024 522.24 1024 0 1024 C0 686.08 0 348.16 0 0 Z " fill="#FDFDFE" transform="translate(0,0)"/>
<path d="M0 0 C1.27485038 -0.00226556 2.54970075 -0.00453111 3.86318296 -0.00686532 C7.37227827 -0.01293609 10.88134958 -0.01285535 14.39044893 -0.01167095 C18.18682171 -0.01146573 21.98318703 -0.01699722 25.77955627 -0.02172852 C33.20700145 -0.03001007 40.63443869 -0.03278224 48.06188811 -0.03334089 C54.10504607 -0.03381732 60.14820143 -0.03587836 66.19135857 -0.03904152 C83.35583471 -0.04784191 100.52030463 -0.05246195 117.68478305 -0.05171105 C119.07075479 -0.05165111 119.07075479 -0.05165111 120.48472595 -0.05158997 C121.40984627 -0.05154909 122.33496659 -0.0515082 123.28812086 -0.05146609 C138.26791377 -0.05105997 153.2476815 -0.06062244 168.22746713 -0.07472833 C183.6390132 -0.0891253 199.05054701 -0.09599667 214.46209997 -0.09513456 C223.10220653 -0.09480369 231.7422867 -0.09750193 240.38238716 -0.10831261 C247.74106953 -0.1174615 255.09971356 -0.11955715 262.45839918 -0.11280318 C266.20545045 -0.10955975 269.95242835 -0.10940146 273.69947243 -0.11815643 C312.79447363 -0.2034127 312.79447363 -0.2034127 330.26329041 5.86808777 C332.45866086 6.62883646 334.67225546 7.34284408 336.91172791 7.96183777 C352.11580784 12.26368563 365.9197938 22.09604114 377.91563416 32.13371277 C379.21694275 33.18945496 379.21694275 33.18945496 380.54454041 34.26652527 C387.24084755 39.94633509 392.4913748 46.50096326 397.70518494 53.51457214 C398.73201103 54.88809184 399.78763493 56.2400087 400.84922791 57.58683777 C409.80690427 69.42007306 415.48775964 83.80480862 418.91563416 98.13371277 C419.31199869 99.57872052 419.31199869 99.57872052 419.71637058 101.05292034 C422.8380306 113.88116128 422.35147216 126.9346828 422.32246721 140.05827415 C422.31769308 143.70462813 422.33028253 147.3509315 422.34048462 150.99726868 C422.35759601 158.12205856 422.3585286 165.24675995 422.35327172 172.37156502 C422.34921419 178.16863976 422.35069226 183.96568855 422.35601997 189.76276207 C422.3567684 190.59091644 422.35751682 191.41907081 422.35828792 192.27232077 C422.35981955 193.95525161 422.3613579 195.63818243 422.36290289 197.32111325 C422.37660038 213.06922581 422.37120978 228.81728857 422.35971767 244.56539997 C422.34978963 258.93712383 422.36272345 273.30871888 422.38665187 287.68042288 C422.41110056 302.47738041 422.42063651 317.27427808 422.41399914 332.07125539 C422.41051952 340.36256768 422.41265528 348.653781 422.43025017 356.9450779 C422.44504464 364.00360687 422.44551385 371.06196717 422.42817926 378.12049309 C422.41972571 381.71373066 422.41737908 385.30666788 422.43283081 388.89988899 C422.51772573 410.19025495 420.39751724 428.51144593 411.91563416 448.13371277 C411.63236267 448.79081238 411.34909119 449.44791199 411.05723572 450.12492371 C406.13864705 461.26104325 399.55877241 470.69839037 391.91563416 480.13371277 C391.24145447 480.97031433 390.56727478 481.80691589 389.87266541 482.66886902 C370.56671107 505.59745094 339.32299908 521.7209255 309.6202817 524.92131102 C304.3619907 525.33425584 299.09776975 525.27420271 293.82621765 525.26742554 C291.87680311 525.27082387 291.87680311 525.27082387 289.88800645 525.27429086 C286.30037344 525.28037867 282.71276383 525.28027882 279.12512684 525.27909648 C275.2475429 525.27889169 271.36996633 525.28441889 267.49238586 525.28915405 C259.90056302 525.29744607 252.30874794 525.30020829 244.71692094 525.30076643 C238.53834809 525.30124256 232.35977779 525.30330214 226.18120575 525.30646706 C208.63274762 525.31527196 191.08429559 525.31988703 173.53583524 525.31913658 C172.59060247 525.31909663 171.64536971 525.31905667 170.67149353 525.3190155 C169.72509484 525.31897462 168.77869614 525.31893374 167.8036187 525.31889162 C152.49269944 525.31848585 137.18180486 525.32803839 121.87089273 525.34215387 C106.1192618 525.35655998 90.36764286 525.36342164 74.61600518 525.36256009 C65.78518396 525.36222944 56.95438856 525.36491803 48.1235733 525.37573814 C40.59877447 525.38489934 33.07401315 525.38697296 25.54921111 525.38022872 C21.71876671 525.37699077 17.88839403 525.37680637 14.0579567 525.38558197 C-12.28540744 525.44185536 -12.28540744 525.44185536 -24.97834778 524.28259277 C-26.18261897 524.17415111 -26.18261897 524.17415111 -27.41121888 524.0635187 C-41.9743143 522.5028418 -55.41915334 516.17659145 -68.08436584 509.13371277 C-68.73614807 508.77857605 -69.3879303 508.42343933 -70.0594635 508.05754089 C-95.79368888 493.83048946 -113.70865395 470.86462589 -125.08436584 444.13371277 C-125.57034241 443.12050964 -126.05631897 442.10730652 -126.55702209 441.06340027 C-128.728143 435.98645499 -129.63683098 430.58867973 -130.70936584 425.19621277 C-130.92592834 424.15013855 -131.14249084 423.10406433 -131.36561584 422.02629089 C-133.3324904 412.36796554 -134.23220669 403.2613161 -134.21807861 393.41494751 C-134.22034417 392.25079962 -134.22260973 391.08665174 -134.22494394 389.88722664 C-134.2301613 386.67339974 -134.23093187 383.45960821 -134.22974956 380.24577844 C-134.22954479 376.77252136 -134.23507168 373.2992725 -134.23980713 369.82601929 C-134.24809856 363.02682495 -134.25086131 356.22763929 -134.25141951 349.42844032 C-134.25189551 343.89719854 -134.25395449 338.36595959 -134.25712013 332.8347187 C-134.26592366 317.13143426 -134.27054014 301.42815665 -134.26978966 285.72486972 C-134.2697497 284.87905306 -134.26970975 284.03323641 -134.26966858 283.16178894 C-134.2696277 282.31493178 -134.26958682 281.46807463 -134.2695447 280.59555513 C-134.26913862 266.88421625 -134.27869932 253.17290488 -134.29280695 239.46157395 C-134.3071987 225.36208157 -134.31407555 211.26260259 -134.31321317 197.16310269 C-134.3128821 189.25578179 -134.31558942 181.34848971 -134.32639122 173.44117546 C-134.33553326 166.70596005 -134.33764135 159.97078652 -134.3308818 153.23556756 C-134.32763479 149.80484795 -134.32749328 146.37420851 -134.33623505 142.9434967 C-134.37047433 126.49066505 -134.36227572 110.61328738 -129.70936584 94.69621277 C-129.51342834 93.97240417 -129.31749084 93.24859558 -129.11561584 92.50285339 C-127.8770334 88.13253877 -126.24231388 84.25816828 -124.12733459 80.24406433 C-122.98513752 77.93293336 -122.07969703 75.5884307 -121.17030334 73.17668152 C-119.21236913 68.19431929 -116.70443454 63.87110815 -113.70936584 59.44621277 C-113.19116272 58.67728699 -112.67295959 57.90836121 -112.13905334 57.11613464 C-92.60281347 28.90487397 -62.39300014 9.10519103 -28.83436584 1.88371277 C-19.25049432 0.2653937 -9.70156192 -0.01280209 0 0 Z " fill="#8C70FB" transform="translate(624.0843658447266,234.8662872314453)"/>
<path d="M0 0 C11.87986536 -0.59531619 21.4277181 2.84756909 30.4453125 10.63671875 C37.99054914 17.7303039 42.74936411 26.22976944 47.5078125 35.32421875 C48.74677006 37.65860814 49.98722948 39.99211534 51.23046875 42.32421875 C51.54227081 42.91022354 51.85407288 43.49622833 52.17532349 44.09999084 C55.1761599 49.72591261 58.29269355 55.28231278 61.4453125 60.82421875 C62.234823 62.21278076 62.234823 62.21278076 63.0402832 63.62939453 C64.11716642 65.52289103 65.19423511 67.41628205 66.27148438 69.30957031 C69.26768982 74.59400967 72.23002486 79.89738984 75.1953125 85.19921875 C75.78086914 86.24408447 76.36642578 87.2889502 76.96972656 88.36547852 C79.57917278 93.02283053 82.18181874 97.68342668 84.7578125 102.359375 C85.17514648 103.1129126 85.59248047 103.8664502 86.02246094 104.64282227 C86.78026942 106.01189384 87.53383275 107.3833277 88.28222656 108.75756836 C90.00747087 112.09439694 90.00747087 112.09439694 92.9453125 114.26171875 C93.28175781 113.46121094 93.28175781 113.46121094 93.625 112.64453125 C95.38432263 109.46942236 97.6986785 106.86077387 100.0703125 104.13671875 C101.07662431 102.96579119 102.08182613 101.79390881 103.0859375 100.62109375 C103.57771484 100.04681641 104.06949219 99.47253906 104.57617188 98.88085938 C106.37414735 96.75458024 108.10069227 94.57666246 109.8203125 92.38671875 C114.23365728 86.82050024 118.90612249 81.48878762 123.57421875 76.13671875 C126.27916818 73.03469113 128.95817955 69.91176251 131.62719727 66.77880859 C136.56084495 60.98835263 141.58444939 55.30581096 146.72265625 49.6953125 C150.82319553 45.20561835 154.80303316 40.6174226 158.7265625 35.97265625 C179.5564549 11.35247748 179.5564549 11.35247748 191.9453125 9.26171875 C206.35610565 8.1931218 217.38594977 10.24151229 228.6875 19.98046875 C240.4306683 31.84553845 241.22957423 47.34938693 242.5078125 63.19921875 C242.63401812 64.67203466 242.7611484 66.14477161 242.88916016 67.61743164 C243.41934529 73.75722363 243.91889794 79.89931718 244.40234375 86.04296875 C246.75669472 115.49310513 250.53445078 144.75441249 255.80377197 173.81945801 C256.72612223 178.93919792 257.56958856 184.06829998 258.37890625 189.20703125 C261.91851224 211.57137863 266.37762043 233.65157142 272.05737305 255.57739258 C272.33186783 256.64531036 272.33186783 256.64531036 272.61190796 257.73480225 C273.11969186 259.70165124 273.63538169 261.66645433 274.15161133 263.63110352 C275.36745337 269.19271135 275.89857677 274.62502567 274.9453125 280.26171875 C271.98706665 284.69908752 268.99492356 285.94813749 263.9453125 287.26171875 C260.48333897 287.54941636 257.04249826 287.54636892 253.5703125 287.51171875 C252.59513672 287.50495117 251.61996094 287.49818359 250.61523438 287.49121094 C231.09269768 287.21561374 207.26218098 284.32779245 192.45703125 270.08203125 C172.20101815 245.69106974 171.59272571 202.73725485 167.05795288 172.57766724 C166.08565845 166.12733673 165.05567644 159.68992089 163.9453125 153.26171875 C157.48813889 160.83465397 151.12234974 168.45712191 144.9453125 176.26171875 C143.67509085 177.84554284 142.40424304 179.42886494 141.1328125 181.01171875 C138.37511978 184.45613104 135.64207217 187.9186789 132.92236328 191.39306641 C122.18312938 205.10532951 122.18312938 205.10532951 116.9453125 211.26171875 C116.336875 211.99132812 115.7284375 212.7209375 115.1015625 213.47265625 C108.26173944 221.03703684 97.8616737 226.76536812 87.625 227.5 C75.33686897 227.73970687 67.81759218 224.84996393 57.68359375 217.9453125 C50.19702859 210.60826505 45.6180917 200.25003565 40.6328125 191.13671875 C35.85135225 182.44490723 31.00517406 173.80221627 25.91479492 165.28662109 C24.14591382 162.32569323 22.42261126 159.38046059 20.9453125 156.26171875 C18.9760257 159.77830233 17.99721136 163.38284171 16.9453125 167.26171875 C16.5946875 168.39609375 16.2440625 169.53046875 15.8828125 170.69921875 C15.16419823 173.42995297 14.70000046 175.85636806 14.3828125 178.63671875 C13.9453125 182.26171875 13.9453125 182.26171875 12.9453125 183.26171875 C12.71257232 185.22338601 12.48139882 187.18526478 12.26171875 189.1484375 C11.83825994 191.97672409 10.84855289 194.55199757 9.9453125 197.26171875 C9.73065558 198.69541499 9.5440259 200.13353393 9.3828125 201.57421875 C8.9453125 205.26171875 8.9453125 205.26171875 7.9453125 206.26171875 C7.7803125 207.41671875 7.6153125 208.57171875 7.4453125 209.76171875 C6.9453125 213.26171875 6.9453125 213.26171875 5.9453125 214.26171875 C5.42513965 216.56534136 4.95491554 218.88030611 4.5078125 221.19921875 C4.37439453 221.87855469 4.24097656 222.55789063 4.10351562 223.2578125 C3.51765295 226.24656121 2.94978324 229.23688496 2.41015625 232.234375 C1.47894578 237.29734284 0.01455143 241.51971288 -2.0546875 246.26171875 C-2.2815625 247.56109375 -2.5084375 248.86046875 -2.7421875 250.19921875 C-5.22640373 262.09087678 -12.29347752 273.0796396 -21.0546875 281.26171875 C-21.73273438 281.92042969 -22.41078125 282.57914063 -23.109375 283.2578125 C-38.51359315 296.88040399 -62.00996929 306.55996707 -82.03515625 310.7890625 C-84.03975242 311.07099605 -84.03975242 311.07099605 -85.0546875 312.26171875 C-87.32086358 312.44055024 -89.59440135 312.52974611 -91.8671875 312.57421875 C-93.11113281 312.61160156 -94.35507812 312.64898438 -95.63671875 312.6875 C-99.0546875 312.26171875 -99.0546875 312.26171875 -101.44140625 310.3671875 C-105.23230915 305.41973796 -104.49540286 300.28482873 -104.0546875 294.26171875 C-103.07242721 287.53141676 -101.533163 280.89656928 -100.0546875 274.26171875 C-99.74990479 272.86977295 -99.74990479 272.86977295 -99.43896484 271.44970703 C-98.81756798 268.61467524 -98.18845405 265.78150986 -97.5546875 262.94921875 C-97.36559814 262.10375488 -97.17650879 261.25829102 -96.98168945 260.38720703 C-95.84649582 255.42162583 -94.59420949 250.49943494 -93.265625 245.58203125 C-90.38556025 234.91776888 -87.80054356 224.17945646 -85.1796875 213.44921875 C-84.91356659 212.36244843 -84.64744568 211.2756781 -84.3732605 210.15597534 C-81.12381565 196.88393426 -77.94061648 183.60310806 -74.92797852 170.27514648 C-73.48038979 163.93026955 -71.82075531 157.67975614 -70.015625 151.4284668 C-67.97054953 144.22297345 -66.2978792 136.93422634 -64.6171875 129.63671875 C-61.86763684 117.70825578 -58.98868181 105.8210727 -55.98681641 93.95361328 C-54.18006149 86.79757667 -52.38702818 79.63809982 -50.59463501 72.47845459 C-49.94987177 69.90478724 -49.30349943 67.33152804 -48.65698242 64.75830078 C-48.24499942 63.11497916 -47.83329347 61.47158805 -47.421875 59.828125 C-47.22148621 59.02797974 -47.02109741 58.22783447 -46.81463623 57.40344238 C-45.8267379 53.43753316 -44.86254583 49.46787746 -43.94165039 45.48583984 C-43.76469635 44.72101791 -43.58774231 43.95619598 -43.40542603 43.16819763 C-43.07722885 41.7402233 -42.75245154 40.31145627 -42.43197632 38.88172913 C-39.28810988 25.16301001 -33.51193481 14.55270675 -21.60546875 6.765625 C-14.39052624 2.51179213 -8.35183909 0.71556678 0 0 Z " fill="#F4EFFD" transform="translate(686.0546875,353.73828125)"/>
<path d="M0 0 C0.33 0 0.66 0 1 0 C1.38965559 4.2608331 1.778535 8.52173629 2.16693115 12.78268433 C2.37652534 15.07921322 2.5869332 17.3756667 2.79736328 19.67211914 C3.9882888 32.70338415 3.9882888 32.70338415 4.46875 38.8359375 C6.78487662 68.26748864 10.59318093 97.51499259 15.85845947 126.55773926 C16.78080973 131.67747917 17.62427606 136.80658123 18.43359375 141.9453125 C21.97319974 164.30965988 26.43230793 186.38985267 32.11206055 208.31567383 C32.29505707 209.02761902 32.47805359 209.73956421 32.66659546 210.4730835 C33.17437936 212.43993249 33.69006919 214.40473558 34.20629883 216.36938477 C35.42214087 221.9309926 35.95326427 227.36330692 35 233 C32.04175415 237.43736877 29.04961106 238.68641874 24 240 C20.53802647 240.28769761 17.09718576 240.28465017 13.625 240.25 C12.64982422 240.24323242 11.67464844 240.23646484 10.66992188 240.22949219 C-8.85261482 239.95389499 -32.68313152 237.0660737 -47.48828125 222.8203125 C-68.09658532 198.00514532 -68.78674977 153.60771117 -73.25708008 122.88134766 C-73.70643758 119.82729214 -74.2148666 116.79964796 -74.8112793 113.77099609 C-76.63190319 103.9013323 -76.63190319 103.9013323 -74.17578125 100.28125 C-72.75845703 98.90453125 -72.75845703 98.90453125 -71.3125 97.5 C-70.27300008 96.42872425 -69.23663287 95.35440145 -68.203125 94.27734375 C-67.66751953 93.74093262 -67.13191406 93.20452148 -66.58007812 92.65185547 C-64.01101226 89.96608606 -61.80763298 87.01917376 -59.5625 84.0625 C-55.31248648 78.57617441 -50.87974572 73.27742772 -46.33349609 68.03491211 C-43.37527846 64.62066384 -40.50311233 61.1590425 -37.6875 57.625 C-33.8834389 52.92342902 -29.79284034 48.56251217 -25.625 44.1875 C-12.97357485 30.81679478 -2.79166584 18.83332774 0 0 Z " fill="#DECFFC" transform="translate(926,401)"/>
<path d="M0 0 C0.66 0 1.32 0 2 0 C2.14695312 0.90621094 2.29390625 1.81242187 2.4453125 2.74609375 C4.18915881 12.21698321 6.37105866 19.31574056 14.0625 25.4375 C19.90974789 28.54773824 25.51748705 29.81678404 32 31 C32 31.33 32 31.66 32 32 C31.05898438 32.24234375 30.11796875 32.4846875 29.1484375 32.734375 C27.90320313 33.06953125 26.65796875 33.4046875 25.375 33.75 C23.53035156 34.23726563 23.53035156 34.23726563 21.6484375 34.734375 C14.91678124 37.0695534 9.85028176 41.05055333 6 47 C4.79490502 49.8158265 3.78851635 52.62904516 2.859375 55.546875 C2 58 2 58 0 61 C-0.24234375 60.20335937 -0.4846875 59.40671875 -0.734375 58.5859375 C-3.41619512 50.10726003 -6.1768749 42.95408988 -14 38 C-19.46653997 35.38871066 -25.14761198 33.52670992 -31 32 C-31 31.67 -31 31.34 -31 31 C-30.32195313 30.84144531 -29.64390625 30.68289063 -28.9453125 30.51953125 C-19.0269274 28.03306629 -10.40862405 25.33674003 -4.953125 16.2578125 C-2.07112719 11.05768602 -0.90980229 5.84188838 0 0 Z " fill="#FAF9FD" transform="translate(858,300)"/>
<path d="M0 0 C0.99 0.495 0.99 0.495 2 1 C2.9181611 26.60065045 3.15093157 52.17413113 3.1343255 77.78971481 C3.13172706 83.08840731 3.13416043 88.38709842 3.13571167 93.68579102 C3.13751597 102.59765946 3.13517735 111.50951955 3.13037109 120.42138672 C3.12556653 129.43083236 3.12552494 138.44026142 3.13037109 147.44970703 C3.15605428 196.3086413 3.15051954 245.15198174 2 294 C1.67 294 1.34 294 1 294 C-0.00246335 287.36160841 -0.13818601 280.88732831 -0.12025452 274.18029785 C-0.12110894 273.00556648 -0.12196337 271.8308351 -0.12284368 270.62050581 C-0.12420122 267.37771547 -0.12109418 264.13496554 -0.11606562 260.89217997 C-0.1117332 257.38853873 -0.11320952 253.88489926 -0.1139679 250.3812561 C-0.11449136 244.31687477 -0.11136308 238.25250423 -0.10573006 232.18812561 C-0.09759105 223.42013328 -0.09499737 214.65214615 -0.09374207 205.88415045 C-0.09155532 191.65746453 -0.08490546 177.43078436 -0.07543945 163.20410156 C-0.06625558 149.38704456 -0.05917951 135.56998912 -0.05493164 121.75292969 C-0.05466892 120.90075074 -0.05440619 120.04857179 -0.05413551 119.17056924 C-0.05283044 114.89528995 -0.05156674 110.62001064 -0.05032361 106.34473133 C-0.03996274 70.89648346 -0.02235469 35.44824226 0 0 Z " fill="#CA77FC" transform="translate(490,354)"/>
<path d="M0 0 C0.66 0 1.32 0 2 0 C2.23074219 0.73605469 2.46148438 1.47210938 2.69921875 2.23046875 C5.09778934 9.40721949 7.24372916 13.71357427 13.875 17.75 C17.2738575 19.109543 20.36753496 19.6367535 24 20 C24 20.66 24 21.32 24 22 C23.443125 22.07476562 22.88625 22.14953125 22.3125 22.2265625 C14.97651457 23.49053296 9.76255962 26.50075781 5.125 32.375 C3.63076872 35.86153965 2.81638038 39.29488904 2 43 C0 42 0 42 -0.78125 40.109375 C-1.0184375 39.33078125 -1.255625 38.5521875 -1.5 37.75 C-1.76039063 36.93917969 -2.02078125 36.12835938 -2.2890625 35.29296875 C-2.82859808 33.55281827 -3.35489783 31.80855729 -3.875 30.0625 C-5.43005476 27.21156627 -6.94739956 26.97128196 -10 26 C-10.94875 25.484375 -11.8975 24.96875 -12.875 24.4375 C-16.29312731 22.86516144 -19.27341329 22.37265867 -23 22 C-23 21.34 -23 20.68 -23 20 C-22.19175781 19.81824219 -21.38351562 19.63648438 -20.55078125 19.44921875 C-19.48214844 19.19785156 -18.41351562 18.94648438 -17.3125 18.6875 C-15.72888672 18.32205078 -15.72888672 18.32205078 -14.11328125 17.94921875 C-10.2332977 16.76623757 -7.09721778 15.55466809 -4.70703125 12.16796875 C-4.41183594 11.51441406 -4.11664062 10.86085938 -3.8125 10.1875 C-3.33490234 9.14142578 -3.33490234 9.14142578 -2.84765625 8.07421875 C-1.76316915 5.42047382 -0.82368503 2.74561678 0 0 Z " fill="#F8F8FE" transform="translate(943,330)"/>
<path d="M0 0 C1.15909649 2.31819298 2.25171887 4.60412529 3.25 7 C5.37420493 10.64149417 7.29128388 12.03656206 11 14 C14.23038842 14.79070548 14.23038842 14.79070548 17 15 C14.68142176 16.15928912 12.37685487 17.27262599 10 18.3125 C5.5175138 20.83389849 3.5547001 23.53004474 1.75 28.3125 C1.5025 29.199375 1.255 30.08625 1 31 C-1 28 -1 28 -2.8125 24.5 C-4.72297825 21.17071069 -6.37652984 19.51680146 -10 18 C-13.69523952 17.28076792 -13.69523952 17.28076792 -17 17 C-17 16.34 -17 15.68 -17 15 C-16.00419922 14.77957031 -16.00419922 14.77957031 -14.98828125 14.5546875 C-8.66437475 12.94832293 -5.49911052 11.57670739 -2 6 C-0.67649342 2.78734084 -0.67649342 2.78734084 0 0 Z " fill="#F4F5FD" transform="translate(970,382)"/>
<path d="M0 0 C0.33 0 0.66 0 1 0 C0.88490339 1.41750563 0.75746342 2.83401169 0.625 4.25 C0.55539062 5.03890625 0.48578125 5.8278125 0.4140625 6.640625 C-0.01507113 9.085877 -0.78600638 10.84836903 -2 13 C-2.05447047 11.58376784 -2.09300508 10.16691809 -2.125 8.75 C-2.14820313 7.96109375 -2.17140625 7.1721875 -2.1953125 6.359375 C-1.9828378 3.79268059 -1.28654105 2.2083933 0 0 Z " fill="#875EEB" transform="translate(704,517)"/>
<path d="M0 0 C1.485 0.99 1.485 0.99 3 2 C2.6875 3.9375 2.6875 3.9375 2 6 C1.01 6.33 0.02 6.66 -1 7 C-0.67 4.69 -0.34 2.38 0 0 Z " fill="#825AEC" transform="translate(706,509)"/>
</svg>
