<svg xmlns="http://www.w3.org/2000/svg" width="1254" height="836" viewBox="0 0 1254 836">
<g>
<path d="M 465.39 384.42 C464.92,385.66 463.23,386.00 457.56,386.00 C453.59,386.00 450.03,385.70 449.67,385.33 C449.30,384.97 449.00,365.71 449.00,342.53 C449.00,311.10 449.30,300.10 450.20,299.20 C450.91,298.49 454.34,298.00 458.62,298.00 C459.16,298.00 459.67,297.99 460.14,297.99 C461.75,297.96 462.95,297.94 464.07,298.25 C467.75,299.25 470.48,303.73 483.51,323.00 C490.02,332.62 495.54,340.73 495.78,341.00 C496.02,341.27 496.96,340.39 497.86,339.04 C498.76,337.69 505.51,327.89 512.84,317.25 L 526.19 297.92 L 542.50 298.50 L 542.50 385.50 L 527.50 385.50 L 527.23 355.67 C527.05,334.33 526.65,325.95 525.86,326.21 C525.25,326.42 519.26,334.63 512.56,344.47 C505.86,354.31 499.68,362.80 498.84,363.33 C494.95,365.78 492.45,363.36 479.90,344.94 C473.13,335.00 467.23,326.64 466.79,326.37 C466.36,326.10 466.00,338.70 466.00,354.36 C466.00,370.02 465.73,383.55 465.39,384.42 ZM 1028.00 385.92 C1014.02,392.25 995.71,384.43 988.64,369.12 C985.47,362.26 985.60,347.56 988.89,340.23 C992.20,332.87 1000.45,325.51 1007.75,323.38 C1017.73,320.48 1028.81,322.34 1034.71,327.92 C1037.53,330.58 1038.00,330.54 1038.00,327.62 C1038.00,323.91 1040.16,322.87 1047.16,323.20 L 1053.50 323.50 L 1053.50 385.50 L 1047.16 385.80 C1040.07,386.14 1038.00,385.09 1038.00,381.19 L 1038.00 378.63 L 1035.25 381.25 C1033.74,382.70 1030.47,384.80 1028.00,385.92 ZM 733.66 385.85 C716.51,392.27 697.55,384.45 690.02,367.85 C687.23,361.70 687.25,348.24 690.07,342.03 C696.40,328.08 709.34,320.92 725.45,322.45 C741.12,323.94 752.53,334.45 755.05,349.72 C757.54,364.78 748.31,380.37 733.66,385.85 ZM 882.13 385.04 C875.00,387.85 858.03,388.67 850.69,386.56 C842.43,384.19 835.19,379.88 829.62,374.04 C820.86,364.86 817.00,354.86 817.00,341.38 C817.00,312.67 841.90,292.47 871.81,296.92 C876.00,297.54 881.81,299.14 884.72,300.47 C890.59,303.16 901.01,312.40 900.99,314.90 C900.98,315.78 898.42,318.16 895.29,320.19 L 889.61 323.88 L 886.05 320.67 C880.57,315.72 876.02,313.31 869.80,312.04 C856.47,309.32 843.34,315.53 837.27,327.41 C833.58,334.63 833.01,345.40 835.91,353.08 C840.26,364.61 849.94,371.90 862.02,372.77 C871.30,373.43 877.49,371.23 884.60,364.74 L 890.17 359.64 L 893.38 361.36 C895.14,362.31 897.90,364.14 899.52,365.43 C902.33,367.67 902.39,367.90 900.98,370.54 C898.79,374.63 888.57,382.50 882.13,385.04 ZM 930.39 384.42 C929.61,386.45 916.22,386.75 915.46,384.75 C915.19,384.06 915.10,364.15 915.24,340.50 L 915.50 297.50 L 922.41 297.20 C927.26,296.99 929.57,297.29 930.15,298.20 C930.60,298.92 930.98,306.68 930.98,315.45 L 931.00 331.39 L 934.25 328.32 C938.91,323.90 941.25,322.95 948.92,322.30 C954.81,321.81 956.48,322.07 961.22,324.25 C964.41,325.70 967.76,328.17 969.20,330.13 C974.16,336.87 974.50,338.97 974.50,363.00 L 974.50 385.50 L 966.75 385.79 L 959.00 386.08 L 958.94 366.79 C958.91,354.56 958.45,346.25 957.69,344.09 C955.88,338.93 951.99,336.55 945.51,336.64 C939.29,336.73 935.85,338.56 932.96,343.30 C931.21,346.16 931.01,348.42 931.00,364.67 C931.00,374.66 930.73,383.55 930.39,384.42 ZM 1092.75 385.46 C1089.66,386.44 1079.96,386.56 1079.03,385.63 C1078.38,384.98 1078.00,375.78 1078.00,360.75 L 1078.00 336.90 L 1072.16 337.11 C1068.95,337.22 1065.80,336.99 1065.16,336.60 C1064.49,336.19 1064.00,333.40 1064.00,330.05 C1064.00,323.32 1064.38,323.00 1072.58,323.00 L 1078.00 323.00 L 1078.00 312.56 C1078.00,306.82 1078.34,301.91 1078.75,301.66 C1079.16,301.41 1082.65,301.05 1086.50,300.85 L 1093.50 300.50 L 1094.50 323.50 L 1102.25 323.79 L 1110.00 324.08 L 1110.00 329.84 C1110.00,333.01 1109.46,336.14 1108.80,336.80 C1108.10,337.50 1104.76,338.00 1100.80,338.00 L 1094.00 338.00 L 1094.00 361.53 C1094.00,379.48 1093.70,385.16 1092.75,385.46 ZM 783.00 366.50 L 782.50 385.50 L 775.46 385.79 C771.58,385.95 768.09,385.76 767.71,385.37 C766.40,384.07 766.87,325.53 768.20,324.20 C768.86,323.54 771.92,323.00 775.00,323.00 C781.35,323.00 783.00,324.11 783.00,328.40 L 783.00 331.39 L 786.25 328.32 C788.04,326.62 790.62,324.66 792.00,323.94 C795.42,322.17 806.24,322.13 808.35,323.87 C810.65,325.79 810.54,333.11 808.16,336.05 C806.52,338.08 805.54,338.30 799.31,338.10 C793.00,337.90 791.98,338.14 789.13,340.55 C783.80,345.03 783.54,346.13 783.00,366.50 ZM 657.02 367.63 C657.01,380.18 656.67,384.99 655.75,385.63 C655.06,386.11 651.58,386.28 648.00,386.00 L 641.50 385.50 L 641.23 355.62 C641.04,333.90 641.29,325.36 642.14,324.33 C642.99,323.31 645.16,323.00 649.91,323.21 L 656.50 323.50 L 657.50 331.18 L 660.00 328.50 C663.77,324.45 667.87,322.72 673.98,322.60 C682.37,322.45 683.00,322.95 683.00,329.78 C683.00,337.29 681.52,339.53 677.56,338.02 C673.75,336.57 666.64,337.71 663.36,340.29 C658.05,344.46 657.05,348.81 657.02,367.63 ZM 606.29 369.00 L 605.50 386.50 L 599.78 386.55 C599.18,386.56 598.62,386.57 598.09,386.59 C595.95,386.64 594.45,386.68 593.40,386.01 C590.96,384.46 590.97,379.08 590.99,361.18 C591.00,359.31 591.00,357.30 591.00,355.15 C591.00,333.34 591.32,325.08 592.20,324.20 C592.86,323.54 595.92,323.00 599.00,323.00 C605.35,323.00 607.00,324.11 607.00,328.40 L 607.00 331.39 L 610.25 328.32 C612.04,326.62 614.62,324.66 615.99,323.96 C619.37,322.21 629.29,322.17 631.36,323.88 C633.46,325.62 633.57,333.75 631.53,336.65 C630.22,338.52 629.65,338.63 626.12,337.69 C618.27,335.59 608.69,341.08 607.57,348.32 C607.30,350.07 606.73,359.38 606.29,369.00 ZM 1012.50 372.33 C1016.21,374.30 1023.01,374.44 1027.30,372.65 C1034.49,369.64 1039.92,359.70 1038.50,352.14 C1036.79,343.05 1031.71,337.78 1023.45,336.54 C1011.56,334.76 1002.04,342.97 1002.04,355.00 C1002.04,362.71 1005.67,368.73 1012.50,372.33 ZM 714.50 372.34 C722.58,376.60 733.81,372.20 737.62,363.28 C739.28,359.40 739.43,349.71 737.88,346.68 C736.22,343.46 731.87,339.02 728.80,337.41 C724.71,335.27 717.96,335.66 712.91,338.33 C706.94,341.47 704.04,346.68 704.02,354.28 C703.99,363.30 706.92,368.34 714.50,372.34 ZM 575.77 355.62 L 575.50 385.50 L 568.46 385.79 C564.58,385.95 561.09,385.76 560.71,385.37 C560.32,384.98 560.00,371.06 560.00,354.44 C560.00,327.80 560.19,324.14 561.58,323.61 C564.62,322.44 573.73,322.96 574.89,324.37 C575.70,325.34 575.95,334.41 575.77,355.62 ZM 574.08 311.08 C569.49,315.66 563.01,314.67 559.57,308.85 C555.79,302.45 560.41,295.00 568.18,295.00 C576.65,295.00 580.27,304.88 574.08,311.08 Z" fill="rgb(2,2,2)"/>
<path d="M 340.63 514.74 L 332.50 517.50 L 251.00 517.62 C206.18,517.68 168.15,517.55 166.50,517.31 C159.68,516.33 156.15,514.88 154.51,512.37 C153.56,510.93 153.25,510.04 153.81,510.38 C154.37,510.73 155.02,510.45 155.24,509.77 C155.49,509.02 158.24,508.31 162.08,508.01 L 168.50 507.50 L 168.75 504.00 C168.89,502.08 169.51,497.91 170.14,494.75 C171.37,488.49 171.46,488.44 180.00,488.92 C182.74,489.07 183.72,488.64 184.50,486.92 C185.05,485.71 185.95,484.76 186.50,484.79 C189.06,484.96 191.00,481.55 191.00,476.90 C191.00,471.78 192.21,470.10 194.52,472.01 C195.64,472.94 196.30,472.84 197.60,471.54 C198.51,470.63 199.91,470.13 200.70,470.44 C201.85,470.88 202.10,470.03 201.93,466.25 C201.72,461.45 203.10,457.09 205.94,453.58 C206.95,452.34 207.03,451.93 206.18,452.43 C205.08,453.08 205.08,452.85 206.17,451.10 C206.89,449.95 207.82,449.00 208.24,449.00 C208.66,449.00 209.00,448.33 209.00,447.50 C209.00,446.67 209.86,445.14 210.90,444.10 C211.95,443.05 213.09,441.31 213.43,440.22 C213.78,439.13 214.92,437.25 215.97,436.03 C217.44,434.34 217.67,433.27 216.97,431.42 C215.63,427.89 217.47,424.06 220.53,424.02 C221.10,424.01 222.33,425.29 223.27,426.88 C224.20,428.46 226.34,431.22 228.02,433.02 C230.95,436.16 231.13,436.21 232.54,434.39 C233.97,432.54 234.04,432.54 235.75,434.50 C237.95,437.02 241.04,437.22 248.00,435.28 C256.78,432.84 258.42,431.58 265.54,421.78 C273.35,411.02 277.86,406.00 279.70,406.00 C280.41,406.00 281.00,405.59 281.00,405.09 C281.00,403.74 285.96,404.53 287.51,406.12 C288.24,406.88 290.46,415.60 292.44,425.50 C294.42,435.40 296.27,444.50 296.54,445.73 C297.36,449.47 302.83,454.77 308.77,457.58 C316.13,461.07 328.96,462.11 333.79,459.61 C335.65,458.65 337.24,456.89 337.62,455.36 C338.18,453.15 334.15,431.21 323.86,380.50 C323.30,377.75 321.48,371.16 319.82,365.85 L 316.79 356.21 L 321.00 350.23 C326.07,343.05 327.09,337.39 324.30,332.02 C319.26,322.29 304.17,320.29 293.74,327.96 C291.63,329.51 283.62,339.11 275.94,349.30 C268.27,359.48 260.39,369.20 258.45,370.91 C255.34,373.64 254.64,373.87 252.70,372.80 C251.49,372.12 250.06,371.55 249.52,371.54 C248.98,371.52 248.68,369.58 248.85,367.24 C249.06,364.25 248.53,361.97 247.05,359.58 C245.89,357.70 245.05,355.80 245.18,355.34 C245.55,354.02 242.33,348.72 239.67,346.27 C238.34,345.04 236.98,342.65 236.64,340.95 C236.30,339.26 235.60,338.13 235.08,338.45 C234.56,338.77 233.85,338.57 233.50,338.00 C233.15,337.43 232.44,337.23 231.93,337.54 C231.42,337.86 231.00,337.39 231.00,336.50 C231.00,335.52 230.54,335.17 229.83,335.61 C229.04,336.09 228.87,335.78 229.30,334.66 C229.65,333.75 229.47,333.00 228.89,333.00 C226.88,333.00 229.22,326.53 232.19,323.85 C233.94,322.28 234.71,320.94 234.09,320.55 C233.37,320.11 233.41,319.32 234.21,318.03 C235.12,316.58 235.09,315.81 234.07,314.58 C233.19,313.52 233.13,313.00 233.88,313.00 C234.49,313.00 235.00,312.10 235.00,311.00 C235.00,309.90 235.45,309.00 236.00,309.00 C236.55,309.00 237.00,308.52 237.00,307.93 C237.00,307.35 238.12,305.40 239.48,303.61 C241.39,301.11 241.69,300.09 240.78,299.18 C239.87,298.27 240.45,297.12 243.30,294.21 C245.33,292.12 247.00,289.45 247.00,288.27 C247.00,287.08 247.46,285.84 248.02,285.49 C248.58,285.14 248.77,284.44 248.46,283.93 C248.14,283.42 249.03,283.00 250.44,283.00 C251.85,283.00 253.01,282.44 253.03,281.75 C253.05,281.06 255.00,279.04 257.36,277.26 L 261.67 274.02 L 260.91 268.40 C260.49,265.32 260.37,262.21 260.64,261.50 C261.29,259.80 292.35,258.53 315.00,259.27 C328.98,259.73 332.72,260.21 339.50,262.37 C362.36,269.68 378.74,287.62 383.47,310.52 C384.76,316.75 385.00,329.11 384.98,389.21 L 384.98 390.42 C384.97,455.09 384.96,466.29 381.11,475.95 C380.28,478.03 379.27,480.04 378.05,482.50 C370.50,497.63 357.13,509.15 340.63,514.74 ZM 323.39 317.51 L 325.28 321.50 L 327.07 317.31 C328.58,313.80 329.55,312.91 333.10,311.85 L 337.33 310.58 L 333.92 309.71 C329.46,308.56 327.27,306.51 326.44,302.71 L 325.76 299.62 L 323.63 304.05 C321.99,307.46 320.73,308.69 318.14,309.41 L 314.79 310.35 L 318.14 311.93 C320.28,312.94 322.18,314.96 323.39,317.51 ZM 277.00 324.11 C277.00,325.15 277.45,326.00 278.00,326.00 C278.55,326.00 279.00,325.08 279.00,323.95 C279.00,321.31 283.31,317.00 285.95,317.00 C287.08,317.00 288.00,316.55 288.00,316.00 C288.00,315.45 286.95,315.00 285.67,315.00 C282.66,315.00 279.27,311.31 278.77,307.50 C278.43,304.92 278.28,304.78 277.64,306.50 C275.73,311.60 274.22,313.54 271.47,314.37 C265.69,316.13 265.54,316.31 269.44,317.03 C273.62,317.79 277.00,320.96 277.00,324.11 ZM 341.92 346.36 L 343.26 348.85 L 345.72 345.92 C347.07,344.32 349.15,342.98 350.34,342.96 C352.09,342.93 351.90,342.66 349.32,341.54 C347.58,340.78 345.52,338.97 344.76,337.52 L 343.38 334.87 L 342.20 337.46 C341.45,339.11 339.93,340.26 338.01,340.65 C334.24,341.40 334.14,342.58 337.80,343.31 C339.37,343.62 341.17,344.95 341.92,346.36 ZM 195.66 468.43 C195.33,469.29 194.12,470.00 192.97,470.00 C191.82,470.00 191.14,469.59 191.45,469.09 C191.76,468.58 191.45,467.94 190.76,467.66 C190.07,467.39 190.51,467.12 191.75,467.08 C192.99,467.04 194.00,466.46 194.00,465.80 C194.00,464.91 194.29,464.89 195.13,465.73 C195.76,466.36 195.99,467.57 195.66,468.43 Z" fill="rgb(116,124,248)"/>
<path d="M 158.00 466.00 C160.52,468.52 163.66,468.52 173.59,465.99 C188.67,462.14 197.01,456.12 200.42,446.60 C201.22,444.34 204.17,432.83 206.97,421.00 C214.13,390.70 214.31,390.00 214.94,390.01 C215.25,390.01 220.63,399.06 226.91,410.12 C239.36,432.06 241.13,433.99 248.80,434.00 C255.46,434.00 258.25,431.86 266.64,420.26 C270.92,414.34 278.74,404.10 284.03,397.50 C310.22,364.78 320.62,351.26 324.12,344.95 C323.35,346.62 322.31,348.37 321.00,350.23 L 316.79 356.21 L 319.82 365.85 C321.48,371.16 323.30,377.75 323.86,380.50 C324.04,381.39 324.22,382.26 324.40,383.13 C324.09,381.94 322.99,380.53 321.89,379.94 C318.97,378.38 315.66,381.73 306.48,395.50 C302.45,401.55 297.55,408.30 295.58,410.50 C292.77,413.64 292.00,415.34 292.00,418.41 C292.00,421.12 293.26,429.26 294.62,436.31 C293.97,433.11 293.22,429.37 292.44,425.50 C290.46,415.60 288.24,406.88 287.51,406.12 C285.96,404.53 281.00,403.74 281.00,405.09 C281.00,405.59 280.41,406.00 279.70,406.00 C277.86,406.00 273.35,411.02 265.54,421.78 C258.42,431.58 256.78,432.84 248.00,435.28 C241.04,437.22 237.95,437.02 235.75,434.50 C234.04,432.54 233.97,432.54 232.54,434.39 C231.13,436.21 230.95,436.16 228.02,433.02 C226.34,431.22 224.20,428.46 223.27,426.88 C222.33,425.29 221.10,424.01 220.53,424.02 C217.47,424.06 215.63,427.89 216.97,431.42 C217.67,433.27 217.44,434.34 215.97,436.03 C214.92,437.25 213.78,439.13 213.43,440.22 C213.09,441.31 211.95,443.05 210.90,444.10 C209.86,445.14 209.00,446.67 209.00,447.50 C209.00,448.33 208.66,449.00 208.24,449.00 C207.82,449.00 206.89,449.95 206.17,451.10 C205.08,452.85 205.08,453.08 206.18,452.43 C207.03,451.93 206.95,452.34 205.94,453.58 C203.10,457.09 201.72,461.45 201.93,466.25 C202.10,470.03 201.85,470.88 200.70,470.44 C199.91,470.13 198.51,470.63 197.60,471.54 C196.30,472.84 195.64,472.94 194.52,472.01 C192.21,470.10 191.00,471.78 191.00,476.90 C191.00,481.55 189.06,484.96 186.50,484.79 C185.95,484.76 185.05,485.71 184.50,486.92 C183.72,488.64 182.74,489.07 180.00,488.92 C171.46,488.44 171.37,488.49 170.14,494.75 C169.51,497.91 168.89,502.08 168.75,504.00 L 168.50 507.50 L 162.08 508.01 C158.24,508.31 155.49,509.02 155.24,509.77 C155.02,510.45 154.37,510.73 153.81,510.38 C153.25,510.04 153.56,510.93 154.51,512.37 C155.53,513.94 157.31,515.10 160.16,515.98 C159.94,515.94 159.72,515.90 159.50,515.86 C150.27,514.17 138.48,508.09 130.82,501.07 C122.49,493.44 116.81,484.54 112.98,473.09 L 110.00 464.20 L 110.02 390.35 L 110.02 387.46 C110.03,321.95 110.04,310.64 113.96,300.90 C114.83,298.72 115.90,296.63 117.22,294.02 C124.86,278.84 139.69,266.80 157.50,261.34 C163.12,259.62 168.76,259.50 247.50,259.50 L 278.85 259.50 C268.54,259.94 260.96,260.67 260.64,261.50 C260.37,262.21 260.49,265.32 260.91,268.40 L 261.67 274.02 L 257.36 277.26 C255.00,279.04 253.05,281.06 253.03,281.75 C253.01,282.44 251.85,283.00 250.44,283.00 C249.03,283.00 248.14,283.42 248.46,283.93 C248.77,284.44 248.58,285.14 248.02,285.49 C247.46,285.84 247.00,287.08 247.00,288.27 C247.00,289.45 245.33,292.12 243.30,294.21 C240.45,297.12 239.87,298.27 240.78,299.18 C241.69,300.09 241.39,301.11 239.48,303.61 C238.12,305.40 237.00,307.35 237.00,307.93 C237.00,308.52 236.55,309.00 236.00,309.00 C235.45,309.00 235.00,309.90 235.00,311.00 C235.00,312.10 234.49,313.00 233.88,313.00 C233.13,313.00 233.19,313.52 234.07,314.58 C235.09,315.81 235.12,316.58 234.21,318.03 C233.41,319.32 233.37,320.11 234.09,320.55 C234.71,320.94 233.94,322.28 232.19,323.85 C229.22,326.53 226.88,333.00 228.89,333.00 C229.47,333.00 229.65,333.75 229.30,334.66 C228.87,335.78 229.04,336.09 229.83,335.61 C230.54,335.17 231.00,335.52 231.00,336.50 C231.00,337.39 231.42,337.86 231.93,337.54 C232.44,337.23 233.15,337.43 233.50,338.00 C233.85,338.57 234.56,338.77 235.08,338.45 C235.60,338.13 236.30,339.26 236.64,340.95 C236.98,342.65 238.34,345.04 239.67,346.27 C242.33,348.72 245.55,354.02 245.18,355.34 C245.05,355.80 245.89,357.70 247.05,359.58 C248.53,361.97 249.06,364.25 248.85,367.24 C248.68,369.58 248.98,371.52 249.52,371.54 C250.06,371.55 251.49,372.12 252.70,372.80 C254.64,373.87 255.34,373.64 258.45,370.91 C260.05,369.51 265.67,362.66 271.89,354.60 L 269.96 357.16 C255.64,376.08 253.35,379.12 252.52,378.76 C252.29,378.66 252.17,378.31 251.95,377.96 C251.44,377.16 246.23,368.17 240.36,358.00 C221.20,324.78 221.88,325.81 216.79,322.67 C211.19,319.21 204.41,318.21 198.89,320.04 C194.91,321.35 188.75,327.17 186.96,331.30 C185.26,335.23 156.00,459.55 156.00,462.84 C156.00,463.48 156.90,464.90 158.00,466.00 ZM 631.40 493.17 C628.57,494.80 620.49,496.29 618.50,495.55 C617.95,495.34 616.30,494.91 614.83,494.59 C611.96,493.96 606.00,489.43 606.00,487.89 C606.00,487.38 607.09,486.46 608.43,485.85 C610.45,484.93 611.32,485.10 613.56,486.87 C615.55,488.43 617.68,489.00 621.56,489.00 C626.09,489.00 627.15,488.62 628.93,486.37 C630.07,484.92 631.00,482.37 631.00,480.71 C631.00,477.73 630.97,477.72 628.96,479.53 C626.07,482.15 616.35,482.75 612.12,480.56 C606.15,477.47 602.73,468.39 604.97,461.59 C606.54,456.83 612.83,451.37 617.68,450.55 C621.77,449.86 626.33,451.08 629.12,453.61 C630.57,454.92 630.80,454.85 631.28,453.04 C631.95,450.47 637.46,450.15 638.41,452.62 C638.75,453.51 638.90,461.37 638.74,470.08 C638.42,487.49 637.79,489.48 631.40,493.17 ZM 1033.75 481.01 C1029.14,483.82 1021.33,483.69 1016.90,480.73 C1004.87,472.69 1009.27,453.23 1023.74,450.52 C1026.37,450.03 1028.44,450.46 1032.05,452.25 C1036.65,454.52 1036.89,454.54 1037.36,452.74 C1037.72,451.34 1038.58,450.94 1040.68,451.18 L 1043.50 451.50 L 1043.78 466.75 L 1044.05 482.00 L 1040.53 482.00 C1038.07,482.00 1037.00,481.55 1037.00,480.51 C1037.00,479.30 1036.40,479.39 1033.75,481.01 ZM 766.65 477.50 C764.91,481.74 764.58,482.00 760.93,482.00 L 757.07 482.00 L 760.57 473.75 C762.50,469.21 766.59,459.54 769.67,452.25 C775.26,439.02 775.28,439.00 778.60,439.00 C778.79,439.00 778.98,439.00 779.15,438.99 C779.75,438.98 780.23,438.98 780.69,439.10 C782.81,439.67 784.17,443.08 792.64,462.50 L 800.93 481.50 L 797.87 481.82 C793.35,482.29 792.24,481.53 790.90,477.05 L 789.68 473.00 L 779.09 473.00 L 768.50 473.01 ZM 843.42 477.25 C841.71,481.03 841.08,481.53 837.75,481.81 C835.69,481.98 834.00,481.92 834.00,481.66 C834.00,481.41 838.00,471.82 842.89,460.35 L 851.78 439.50 L 855.40 439.19 C858.86,438.89 859.11,439.09 861.12,443.69 C865.32,453.32 877.00,481.20 877.00,481.59 C877.00,481.82 875.31,482.00 873.25,482.00 C869.75,481.99 869.38,481.70 867.65,477.50 L 865.80 473.00 L 845.34 473.00 ZM 544.32 481.88 C541.81,483.17 532.49,483.27 529.45,482.04 C525.69,480.52 521.17,474.33 520.49,469.76 C518.29,455.13 535.71,444.64 546.76,453.94 C549.46,456.20 552.77,463.20 552.61,466.30 C552.50,468.43 552.08,468.51 540.25,468.78 C526.77,469.09 525.65,469.74 530.45,474.55 C533.65,477.75 540.52,477.95 544.32,474.96 C546.53,473.23 547.21,473.12 548.95,474.20 C550.08,474.91 551.00,475.74 551.00,476.07 C551.00,476.95 546.80,480.60 544.32,481.88 ZM 671.49 480.71 C660.74,486.80 647.18,481.04 645.47,469.65 C643.14,454.08 662.73,443.96 672.87,455.50 C675.94,459.00 678.60,466.22 677.49,468.02 C677.15,468.57 671.46,469.00 664.44,469.00 C656.22,469.00 652.00,469.37 652.00,470.08 C652.00,470.67 653.32,472.47 654.92,474.08 C657.28,476.44 658.71,477.00 662.31,477.00 C665.19,477.00 667.60,476.33 669.10,475.12 C670.96,473.61 671.89,473.45 673.75,474.30 C676.99,475.77 676.19,478.05 671.49,480.71 ZM 691.00 472.95 L 691.00 482.00 L 683.95 482.00 L 684.22 466.75 L 684.50 451.50 L 687.32 451.18 C689.49,450.93 690.27,451.33 690.69,452.91 C691.22,454.97 691.23,454.97 693.75,452.98 C696.90,450.50 705.50,450.26 708.78,452.56 C712.97,455.49 714.00,459.13 714.00,470.95 L 714.00 482.00 L 707.00 482.00 L 707.00 471.50 C707.00,459.71 705.71,457.00 700.08,457.00 C692.91,457.00 691.00,460.35 691.00,472.95 ZM 469.00 471.95 L 469.00 482.00 L 461.95 482.00 L 462.22 466.75 L 462.50 451.50 L 465.32 451.18 C467.49,450.93 468.27,451.33 468.69,452.91 C469.22,454.97 469.23,454.97 471.75,452.98 C474.79,450.59 481.80,450.33 485.91,452.46 C490.54,454.85 492.00,459.38 492.00,471.40 L 492.00 482.00 L 485.00 482.00 L 485.00 471.95 C485.00,462.62 484.83,461.73 482.55,459.45 C479.30,456.21 474.70,456.21 471.45,459.45 C469.17,461.73 469.00,462.62 469.00,471.95 ZM 1060.00 472.13 L 1060.00 482.00 L 1052.95 482.00 L 1053.22 466.75 L 1053.50 451.50 L 1056.32 451.18 C1058.47,450.93 1059.28,451.34 1059.68,452.88 C1060.21,454.90 1060.21,454.90 1062.88,452.93 C1068.12,449.06 1077.81,450.79 1080.55,456.09 C1081.57,458.07 1082.00,462.31 1082.00,470.45 L 1082.00 482.00 L 1075.00 482.00 L 1075.00 471.06 C1075.00,460.88 1074.84,460.00 1072.78,458.56 C1069.25,456.09 1064.49,456.57 1062.07,459.63 C1060.29,461.90 1060.00,463.67 1060.00,472.13 ZM 932.05 481.31 C927.67,483.90 918.17,483.59 913.90,480.71 C909.78,477.94 909.16,475.68 912.16,474.34 C913.95,473.54 915.11,473.82 917.84,475.67 C922.01,478.50 925.01,478.62 928.13,476.10 C930.39,474.27 930.41,474.11 928.73,472.25 C927.76,471.18 924.52,469.76 921.52,469.09 C915.51,467.75 911.00,463.66 911.00,459.56 C911.00,451.46 925.03,447.30 932.51,453.19 C935.55,455.58 935.66,457.11 932.89,458.83 C931.07,459.98 930.50,459.88 928.58,458.07 C925.95,455.61 920.79,455.34 918.93,457.58 C916.82,460.13 918.98,462.15 925.83,464.03 C929.25,464.96 932.89,466.50 933.93,467.44 C938.22,471.32 937.28,478.22 932.05,481.31 ZM 901.02 481.49 C894.83,484.69 884.40,482.83 880.23,477.79 C879.17,476.50 879.38,475.98 881.53,474.57 C883.99,472.96 884.20,472.99 887.12,475.45 C890.44,478.24 894.61,478.74 897.42,476.68 C901.35,473.81 897.87,470.49 888.91,468.59 C880.93,466.90 878.16,458.57 883.97,453.68 C889.60,448.94 898.58,449.44 903.31,454.76 C905.07,456.74 905.06,456.84 902.91,458.35 C900.87,459.78 900.49,459.74 898.21,457.95 C895.07,455.48 890.81,455.45 888.61,457.88 C887.06,459.60 887.05,459.90 888.48,461.34 C889.35,462.21 891.74,463.22 893.78,463.59 C901.06,464.91 906.00,468.80 906.00,473.24 C906.00,477.19 904.49,479.70 901.02,481.49 ZM 979.18 480.13 C976.41,482.61 975.18,482.99 970.23,482.94 C963.48,482.86 961.32,482.10 958.16,478.69 L 955.81 476.17 L 958.44 474.45 C960.98,472.78 961.16,472.80 963.39,474.90 C966.57,477.88 972.15,478.71 974.33,476.53 C975.25,475.61 976.00,474.47 976.00,474.00 C976.00,472.18 972.87,470.15 969.04,469.51 C964.33,468.71 958.98,465.32 958.01,462.50 C956.78,458.95 958.79,454.16 962.28,452.34 C966.83,449.96 974.13,450.24 977.93,452.95 C981.50,455.49 981.78,457.03 979.01,458.76 C977.32,459.82 976.70,459.70 975.01,458.01 C972.59,455.59 967.75,455.39 965.53,457.62 C962.98,460.16 964.13,461.34 971.55,463.77 C979.99,466.53 982.40,468.71 982.40,473.60 C982.40,476.45 981.69,477.89 979.18,480.13 ZM 999.78 469.75 L 999.50 481.50 L 996.46 481.80 C994.79,481.96 993.11,481.77 992.71,481.38 C992.32,480.99 992.00,475.60 992.00,469.41 L 992.00 458.16 L 989.00 457.50 C986.67,456.99 986.00,456.30 986.00,454.42 C986.00,452.41 986.50,452.00 988.95,452.00 C991.84,452.00 991.91,451.88 992.20,446.25 L 992.50 440.50 L 999.50 440.50 L 999.80 445.69 C1000.09,450.73 1000.20,450.89 1003.30,451.19 C1005.95,451.45 1006.55,451.97 1006.82,454.25 C1006.99,455.76 1006.65,457.06 1006.07,457.12 C1005.48,457.19 1004.55,457.36 1004.00,457.50 C1003.45,457.64 1002.34,457.81 1001.53,457.88 C1000.35,457.98 1000.01,460.28 999.78,469.75 ZM 510.22 469.75 L 509.94 482.00 L 503.00 482.00 L 503.00 470.00 C503.00,461.15 502.67,457.96 501.75,457.85 C501.06,457.76 500.05,457.59 499.50,457.46 C498.95,457.34 497.94,457.18 497.25,457.12 C496.56,457.05 496.00,455.88 496.00,454.50 C496.00,453.12 496.56,451.95 497.25,451.88 C497.94,451.82 498.95,451.66 499.50,451.54 C500.05,451.41 501.04,451.24 501.70,451.15 C502.41,451.06 503.02,448.88 503.20,445.75 C503.49,440.65 503.59,440.49 506.70,440.19 L 509.90 439.88 L 510.20 445.64 L 510.50 451.40 L 514.00 451.45 C517.04,451.49 517.54,451.85 517.81,454.19 C518.09,456.64 517.79,456.90 514.31,457.19 L 510.50 457.50 ZM 1103.88 458.00 L 1101.00 458.00 L 1101.00 482.00 L 1094.00 482.00 L 1094.00 470.00 C1094.00,458.23 1093.96,458.00 1091.75,457.98 C1088.37,457.96 1086.79,456.55 1087.16,453.89 C1087.43,452.02 1088.20,451.43 1090.70,451.19 C1093.80,450.89 1093.91,450.73 1094.20,445.69 C1094.49,440.66 1094.60,440.49 1097.70,440.19 L 1100.90 439.88 L 1101.20 445.66 C1101.49,451.29 1101.58,451.44 1104.39,451.47 C1107.99,451.51 1109.95,454.15 1108.07,456.42 C1107.35,457.29 1105.46,458.00 1103.88,458.00 ZM 733.00 457.00 L 733.00 482.00 L 726.00 482.00 L 726.00 458.13 L 722.75 457.81 C720.06,457.55 719.45,457.03 719.19,454.82 C718.92,452.44 719.25,452.10 722.19,451.82 C725.48,451.50 725.50,451.47 725.80,445.69 L 726.10 439.88 L 729.30 440.19 C732.41,440.49 732.51,440.65 732.80,445.75 C733.02,449.45 733.53,451.04 734.55,451.12 C735.35,451.19 736.45,451.36 737.00,451.50 C737.55,451.64 738.45,451.81 739.00,451.88 C739.55,451.94 740.00,453.12 740.00,454.50 C740.00,456.69 739.57,457.00 736.50,457.00 ZM 452.77 460.75 L 453.04 482.00 L 445.00 482.00 L 445.00 438.88 L 452.50 439.50 ZM 1022.30 475.99 C1032.93,480.27 1042.02,467.86 1034.08,459.92 C1030.96,456.80 1025.75,455.99 1021.94,458.03 C1019.65,459.26 1017.00,464.07 1017.00,467.00 C1017.00,470.19 1019.84,474.99 1022.30,475.99 ZM 566.00 438.00 L 566.00 482.00 L 559.00 482.00 L 559.00 438.00 ZM 582.00 460.06 L 582.00 482.00 L 575.00 482.00 L 575.00 438.23 L 577.74 437.71 C579.25,437.42 580.83,437.39 581.24,437.65 C581.66,437.91 582.00,447.99 582.00,460.06 ZM 615.30 474.50 C620.42,478.08 629.08,475.30 631.01,469.46 C633.21,462.80 628.54,457.00 620.98,457.00 C616.54,457.00 614.05,458.64 612.37,462.67 C610.60,466.89 611.90,472.12 615.30,474.50 ZM 813.00 439.00 L 813.00 482.00 L 806.00 482.00 L 806.00 439.00 ZM 597.78 466.75 L 598.05 482.00 L 594.49 482.00 C592.50,482.00 590.72,481.43 590.44,480.70 C590.17,479.99 590.07,473.13 590.22,465.45 L 590.50 451.50 L 597.50 451.50 ZM 949.78 466.75 L 950.05 482.00 L 942.95 482.00 L 943.22 466.75 L 943.50 451.50 L 949.50 451.50 ZM 849.84 466.18 C852.19,467.14 860.25,467.13 861.78,466.16 C862.75,465.54 862.15,463.33 859.19,456.69 L 855.34 448.02 L 851.75 456.76 C848.57,464.52 848.36,465.58 849.84,466.18 ZM 772.00 465.20 C772.00,465.64 775.35,466.00 779.44,466.00 L 786.89 466.00 L 784.47 460.53 C783.14,457.53 781.35,453.37 780.48,451.30 L 778.91 447.53 L 775.45 455.97 C773.55,460.61 772.00,464.77 772.00,465.20 ZM 653.00 462.59 C653.00,463.69 654.85,464.00 661.50,464.00 C668.50,464.00 670.00,463.73 670.00,462.45 C670.00,459.82 665.34,456.00 662.12,456.00 C658.89,456.00 653.00,460.25 653.00,462.59 ZM 528.00 462.59 C528.00,463.69 529.85,464.00 536.50,464.00 C543.09,464.00 545.00,463.69 545.00,462.61 C545.00,460.02 541.52,456.94 537.94,456.37 C535.05,455.91 533.79,456.30 531.19,458.49 C529.44,459.97 528.00,461.81 528.00,462.59 ZM 949.43 444.43 C946.41,447.45 942.00,445.71 942.00,441.50 C942.00,440.35 942.54,438.86 943.20,438.20 C943.86,437.54 945.34,437.00 946.50,437.00 C950.71,437.00 952.45,441.41 949.43,444.43 ZM 597.30 443.90 C594.55,448.29 587.66,444.23 589.82,439.50 C591.49,435.84 596.70,435.94 597.63,439.65 C597.99,441.11 597.84,443.03 597.30,443.90 ZM 195.66 468.43 C195.99,467.57 195.76,466.36 195.13,465.73 C194.29,464.89 194.00,464.91 194.00,465.80 C194.00,466.46 192.99,467.04 191.75,467.08 C190.51,467.12 190.07,467.39 190.76,467.66 C191.45,467.94 191.76,468.58 191.45,469.09 C191.14,469.59 191.82,470.00 192.97,470.00 C194.12,470.00 195.33,469.29 195.66,468.43 ZM 339.50 262.37 C333.80,260.55 330.25,259.93 320.95,259.50 L 331.50 259.50 L 339.50 262.21 C343.89,263.70 348.01,265.54 351.86,267.68 C348.00,265.55 343.87,263.77 339.50,262.37 ZM 251.00 517.62 L 332.50 517.50 L 251.00 517.65 C206.18,517.74 168.60,517.62 167.50,517.38 C167.46,517.38 167.42,517.37 167.37,517.36 C173.50,517.56 209.31,517.68 251.00,517.62 ZM 334.79 459.00 C334.47,459.23 334.13,459.43 333.79,459.61 C331.19,460.95 326.27,461.27 321.13,460.74 C322.35,460.82 323.62,460.88 324.80,460.90 C329.23,460.97 332.59,460.32 334.79,459.00 ZM 277.06 347.82 C284.38,338.20 291.73,329.44 293.74,327.96 C294.68,327.27 295.65,326.66 296.65,326.13 C295.66,326.67 294.68,327.29 293.72,327.99 C291.90,329.32 284.79,337.82 277.06,347.82 ZM 297.69 448.35 C297.11,447.43 296.72,446.54 296.54,445.73 C296.43,445.24 296.07,443.49 295.55,440.94 C296.17,443.83 296.76,446.16 297.18,447.25 C297.32,447.62 297.49,447.98 297.69,448.35 ZM 333.92 431.38 C336.80,446.66 337.94,454.12 337.62,455.36 C337.92,454.17 336.68,446.10 333.92,431.38 ZM 368.73 281.09 C376.07,289.26 381.15,299.25 383.47,310.52 C381.15,299.29 376.03,289.26 368.73,281.09 Z" fill="rgb(149,99,238)"/>
<path d="M 0.00 418.00 L 0.00 0.00 L 627.00 0.00 L 1254.00 0.00 L 1254.00 418.00 L 1254.00 836.00 L 627.00 836.00 L 0.00 836.00 L 0.00 418.00 ZM 340.63 514.74 C357.13,509.15 370.50,497.63 378.05,482.50 C385.00,468.56 384.96,469.04 384.98,389.21 C385.00,329.11 384.76,316.75 383.47,310.52 C378.76,287.69 362.74,270.10 339.50,262.21 L 331.50 259.50 L 247.50 259.50 C168.76,259.50 163.12,259.62 157.50,261.34 C139.69,266.80 124.86,278.84 117.22,294.02 C109.95,308.46 110.04,307.30 110.02,390.35 L 110.00 464.20 L 112.98 473.09 C116.81,484.54 122.49,493.44 130.82,501.07 C138.48,508.09 150.27,514.17 159.50,515.86 C162.80,516.47 166.40,517.15 167.50,517.38 C168.60,517.62 206.18,517.74 251.00,517.65 L 332.50 517.50 L 340.63 514.74 ZM 631.40 493.17 C637.79,489.48 638.42,487.49 638.74,470.08 C638.90,461.37 638.75,453.51 638.41,452.62 C637.46,450.15 631.95,450.47 631.28,453.04 C630.80,454.85 630.57,454.92 629.12,453.61 C626.33,451.08 621.77,449.86 617.68,450.55 C612.83,451.37 606.54,456.83 604.97,461.59 C602.73,468.39 606.15,477.47 612.12,480.56 C616.35,482.75 626.07,482.15 628.96,479.53 C630.97,477.72 631.00,477.73 631.00,480.71 C631.00,482.37 630.07,484.92 628.93,486.37 C627.15,488.62 626.09,489.00 621.56,489.00 C617.68,489.00 615.55,488.43 613.56,486.87 C611.32,485.10 610.45,484.93 608.43,485.85 C607.09,486.46 606.00,487.38 606.00,487.89 C606.00,489.43 611.96,493.96 614.83,494.59 C616.30,494.91 617.95,495.34 618.50,495.55 C620.49,496.29 628.57,494.80 631.40,493.17 ZM 544.32 481.88 C546.80,480.60 551.00,476.95 551.00,476.07 C551.00,475.74 550.08,474.91 548.95,474.20 C547.21,473.12 546.53,473.23 544.32,474.96 C540.52,477.95 533.65,477.75 530.45,474.55 C525.65,469.74 526.77,469.09 540.25,468.78 C552.08,468.51 552.50,468.43 552.61,466.30 C552.77,463.20 549.46,456.20 546.76,453.94 C535.71,444.64 518.29,455.13 520.49,469.76 C521.17,474.33 525.69,480.52 529.45,482.04 C532.49,483.27 541.81,483.17 544.32,481.88 ZM 671.49 480.71 C676.19,478.05 676.99,475.77 673.75,474.30 C671.89,473.45 670.96,473.61 669.10,475.12 C667.60,476.33 665.19,477.00 662.31,477.00 C658.71,477.00 657.28,476.44 654.92,474.08 C653.32,472.47 652.00,470.67 652.00,470.08 C652.00,469.37 656.22,469.00 664.44,469.00 C671.46,469.00 677.15,468.57 677.49,468.02 C678.60,466.22 675.94,459.00 672.87,455.50 C662.73,443.96 643.14,454.08 645.47,469.65 C647.18,481.04 660.74,486.80 671.49,480.71 ZM 901.02 481.49 C904.49,479.70 906.00,477.19 906.00,473.24 C906.00,468.80 901.06,464.91 893.78,463.59 C891.74,463.22 889.35,462.21 888.48,461.34 C887.05,459.90 887.06,459.60 888.61,457.88 C890.81,455.45 895.07,455.48 898.21,457.95 C900.49,459.74 900.87,459.78 902.91,458.35 C905.06,456.84 905.07,456.74 903.31,454.76 C898.58,449.44 889.60,448.94 883.97,453.68 C878.16,458.57 880.93,466.90 888.91,468.59 C897.87,470.49 901.35,473.81 897.42,476.68 C894.61,478.74 890.44,478.24 887.12,475.45 C884.20,472.99 883.99,472.96 881.53,474.57 C879.38,475.98 879.17,476.50 880.23,477.79 C884.40,482.83 894.83,484.69 901.02,481.49 ZM 932.05 481.31 C937.28,478.22 938.22,471.32 933.93,467.44 C932.89,466.50 929.25,464.96 925.83,464.03 C918.98,462.15 916.82,460.13 918.93,457.58 C920.79,455.34 925.95,455.61 928.58,458.07 C930.50,459.88 931.07,459.98 932.89,458.83 C935.66,457.11 935.55,455.58 932.51,453.19 C925.03,447.30 911.00,451.46 911.00,459.56 C911.00,463.66 915.51,467.75 921.52,469.09 C924.52,469.76 927.76,471.18 928.73,472.25 C930.41,474.11 930.39,474.27 928.13,476.10 C925.01,478.62 922.01,478.50 917.84,475.67 C915.11,473.82 913.95,473.54 912.16,474.34 C909.16,475.68 909.78,477.94 913.90,480.71 C918.17,483.59 927.67,483.90 932.05,481.31 ZM 979.18 480.13 C981.69,477.89 982.40,476.45 982.40,473.60 C982.40,468.71 979.99,466.53 971.55,463.77 C964.13,461.34 962.98,460.16 965.53,457.62 C967.75,455.39 972.59,455.59 975.01,458.01 C976.70,459.70 977.32,459.82 979.01,458.76 C981.78,457.03 981.50,455.49 977.93,452.95 C974.13,450.24 966.83,449.96 962.28,452.34 C958.79,454.16 956.78,458.95 958.01,462.50 C958.98,465.32 964.33,468.71 969.04,469.51 C972.87,470.15 976.00,472.18 976.00,474.00 C976.00,474.47 975.25,475.61 974.33,476.53 C972.15,478.71 966.57,477.88 963.39,474.90 C961.16,472.80 960.98,472.78 958.44,474.45 L 955.81 476.17 L 958.16 478.69 C961.32,482.10 963.48,482.86 970.23,482.94 C975.18,482.99 976.41,482.61 979.18,480.13 ZM 1033.75 481.01 C1036.40,479.39 1037.00,479.30 1037.00,480.51 C1037.00,481.55 1038.07,482.00 1040.53,482.00 L 1044.05 482.00 L 1043.78 466.75 L 1043.50 451.50 L 1040.68 451.18 C1038.58,450.94 1037.72,451.34 1037.36,452.74 C1036.89,454.54 1036.65,454.52 1032.05,452.25 C1028.44,450.46 1026.37,450.03 1023.74,450.52 C1009.27,453.23 1004.87,472.69 1016.90,480.73 C1021.33,483.69 1029.14,483.82 1033.75,481.01 ZM 452.77 460.75 L 452.50 439.50 L 448.75 439.19 L 445.00 438.88 L 445.00 460.44 L 445.00 482.00 L 449.02 482.00 L 453.04 482.00 L 452.77 460.75 ZM 469.00 471.95 C469.00,462.62 469.17,461.73 471.45,459.45 C474.70,456.21 479.30,456.21 482.55,459.45 C484.83,461.73 485.00,462.62 485.00,471.95 L 485.00 482.00 L 488.50 482.00 L 492.00 482.00 L 492.00 471.40 C492.00,459.38 490.54,454.85 485.91,452.46 C481.80,450.33 474.79,450.59 471.75,452.98 C469.23,454.97 469.22,454.97 468.69,452.91 C468.27,451.33 467.49,450.93 465.32,451.18 L 462.50 451.50 L 462.22 466.75 L 461.95 482.00 L 465.47 482.00 L 469.00 482.00 L 469.00 471.95 ZM 510.22 469.75 L 510.50 457.50 L 514.31 457.19 C517.79,456.90 518.09,456.64 517.81,454.19 C517.54,451.85 517.04,451.49 514.00,451.45 L 510.50 451.40 L 510.20 445.64 L 509.90 439.88 L 506.70 440.19 C503.59,440.49 503.49,440.65 503.20,445.75 C503.02,448.88 502.41,451.06 501.70,451.15 C501.04,451.24 500.05,451.41 499.50,451.54 C498.95,451.66 497.94,451.82 497.25,451.88 C496.56,451.95 496.00,453.12 496.00,454.50 C496.00,455.88 496.56,457.05 497.25,457.12 C497.94,457.18 498.95,457.34 499.50,457.46 C500.05,457.59 501.06,457.76 501.75,457.85 C502.67,457.96 503.00,461.15 503.00,470.00 L 503.00 482.00 L 506.47 482.00 L 509.94 482.00 L 510.22 469.75 ZM 566.00 460.00 L 566.00 438.00 L 562.50 438.00 L 559.00 438.00 L 559.00 460.00 L 559.00 482.00 L 562.50 482.00 L 566.00 482.00 L 566.00 460.00 ZM 582.00 460.06 C582.00,447.99 581.66,437.91 581.24,437.65 C580.83,437.39 579.25,437.42 577.74,437.71 L 575.00 438.23 L 575.00 460.12 L 575.00 482.00 L 578.50 482.00 L 582.00 482.00 L 582.00 460.06 ZM 597.78 466.75 L 597.50 451.50 L 594.00 451.50 L 590.50 451.50 L 590.22 465.45 C590.07,473.13 590.17,479.99 590.44,480.70 C590.72,481.43 592.50,482.00 594.49,482.00 L 598.05 482.00 L 597.78 466.75 ZM 691.00 472.95 C691.00,460.35 692.91,457.00 700.08,457.00 C705.71,457.00 707.00,459.71 707.00,471.50 L 707.00 482.00 L 710.50 482.00 L 714.00 482.00 L 714.00 470.95 C714.00,459.13 712.97,455.49 708.78,452.56 C705.50,450.26 696.90,450.50 693.75,452.98 C691.23,454.97 691.22,454.97 690.69,452.91 C690.27,451.33 689.49,450.93 687.32,451.18 L 684.50 451.50 L 684.22 466.75 L 683.95 482.00 L 687.47 482.00 L 691.00 482.00 L 691.00 472.95 ZM 733.00 469.50 L 733.00 457.00 L 736.50 457.00 C739.57,457.00 740.00,456.69 740.00,454.50 C740.00,453.12 739.55,451.94 739.00,451.88 C738.45,451.81 737.55,451.64 737.00,451.50 C736.45,451.36 735.35,451.19 734.55,451.12 C733.53,451.04 733.02,449.45 732.80,445.75 C732.51,440.65 732.41,440.49 729.30,440.19 L 726.10 439.88 L 725.80 445.69 C725.50,451.47 725.48,451.50 722.19,451.82 C719.25,452.10 718.92,452.44 719.19,454.82 C719.45,457.03 720.06,457.55 722.75,457.81 L 726.00 458.13 L 726.00 470.06 L 726.00 482.00 L 729.50 482.00 L 733.00 482.00 L 733.00 469.50 ZM 766.65 477.50 L 768.50 473.01 L 779.09 473.00 L 789.68 473.00 L 790.90 477.05 C792.24,481.53 793.35,482.29 797.87,481.82 L 800.93 481.50 L 792.64 462.50 C781.84,437.74 782.60,439.00 778.60,439.00 C775.28,439.00 775.26,439.02 769.67,452.25 C766.59,459.54 762.50,469.21 760.57,473.75 L 757.07 482.00 L 760.93 482.00 C764.58,482.00 764.91,481.74 766.65,477.50 ZM 813.00 460.50 L 813.00 439.00 L 809.50 439.00 L 806.00 439.00 L 806.00 460.50 L 806.00 482.00 L 809.50 482.00 L 813.00 482.00 L 813.00 460.50 ZM 843.42 477.25 L 845.34 473.00 L 855.57 473.00 L 865.80 473.00 L 867.65 477.50 C869.38,481.70 869.75,481.99 873.25,482.00 C875.31,482.00 877.00,481.82 877.00,481.59 C877.00,481.20 865.32,453.32 861.12,443.69 C859.11,439.09 858.86,438.89 855.40,439.19 L 851.78 439.50 L 842.89 460.35 C838.00,471.82 834.00,481.41 834.00,481.66 C834.00,481.92 835.69,481.98 837.75,481.81 C841.08,481.53 841.71,481.03 843.42,477.25 ZM 949.78 466.75 L 949.50 451.50 L 946.50 451.50 L 943.50 451.50 L 943.22 466.75 L 942.95 482.00 L 946.50 482.00 L 950.05 482.00 L 949.78 466.75 ZM 999.78 469.75 C1000.01,460.28 1000.35,457.98 1001.53,457.88 C1002.34,457.81 1003.45,457.64 1004.00,457.50 C1004.55,457.36 1005.48,457.19 1006.07,457.12 C1006.65,457.06 1006.99,455.76 1006.82,454.25 C1006.55,451.97 1005.95,451.45 1003.30,451.19 C1000.20,450.89 1000.09,450.73 999.80,445.69 L 999.50 440.50 L 996.00 440.50 L 992.50 440.50 L 992.20 446.25 C991.91,451.88 991.84,452.00 988.95,452.00 C986.50,452.00 986.00,452.41 986.00,454.42 C986.00,456.30 986.67,456.99 989.00,457.50 L 992.00 458.16 L 992.00 469.41 C992.00,475.60 992.32,480.99 992.71,481.38 C993.11,481.77 994.79,481.96 996.46,481.80 L 999.50 481.50 L 999.78 469.75 ZM 1060.00 472.13 C1060.00,463.67 1060.29,461.90 1062.07,459.63 C1064.49,456.57 1069.25,456.09 1072.78,458.56 C1074.84,460.00 1075.00,460.88 1075.00,471.06 L 1075.00 482.00 L 1078.50 482.00 L 1082.00 482.00 L 1082.00 470.45 C1082.00,462.31 1081.57,458.07 1080.55,456.09 C1077.81,450.79 1068.12,449.06 1062.88,452.93 C1060.21,454.90 1060.21,454.90 1059.68,452.88 C1059.28,451.34 1058.47,450.93 1056.32,451.18 L 1053.50 451.50 L 1053.22 466.75 L 1052.95 482.00 L 1056.47 482.00 L 1060.00 482.00 L 1060.00 472.13 ZM 1101.00 470.00 L 1101.00 458.00 L 1103.88 458.00 C1105.46,458.00 1107.35,457.29 1108.07,456.42 C1109.95,454.15 1107.99,451.51 1104.39,451.47 C1101.58,451.44 1101.49,451.29 1101.20,445.66 L 1100.90 439.88 L 1097.70 440.19 C1094.60,440.49 1094.49,440.66 1094.20,445.69 C1093.91,450.73 1093.80,450.89 1090.70,451.19 C1088.20,451.43 1087.43,452.02 1087.16,453.89 C1086.79,456.55 1088.37,457.96 1091.75,457.98 C1093.96,458.00 1094.00,458.23 1094.00,470.00 L 1094.00 482.00 L 1097.50 482.00 L 1101.00 482.00 L 1101.00 470.00 ZM 597.30 443.90 C597.84,443.03 597.99,441.11 597.63,439.65 C596.70,435.94 591.49,435.84 589.82,439.50 C587.66,444.23 594.55,448.29 597.30,443.90 ZM 949.43 444.43 C952.45,441.41 950.71,437.00 946.50,437.00 C945.34,437.00 943.86,437.54 943.20,438.20 C942.54,438.86 942.00,440.35 942.00,441.50 C942.00,445.71 946.41,447.45 949.43,444.43 ZM 733.66 385.85 C748.31,380.37 757.54,364.78 755.05,349.72 C752.53,334.45 741.12,323.94 725.45,322.45 C709.34,320.92 696.40,328.08 690.07,342.03 C687.25,348.24 687.23,361.70 690.02,367.85 C697.55,384.45 716.51,392.27 733.66,385.85 ZM 882.13 385.04 C888.57,382.50 898.79,374.63 900.98,370.54 C902.39,367.90 902.33,367.67 899.52,365.43 C897.90,364.14 895.14,362.31 893.38,361.36 L 890.17 359.64 L 884.60 364.74 C877.49,371.23 871.30,373.43 862.02,372.77 C849.94,371.90 840.26,364.61 835.91,353.08 C833.01,345.40 833.58,334.63 837.27,327.41 C843.34,315.53 856.47,309.32 869.80,312.04 C876.02,313.31 880.57,315.72 886.05,320.67 L 889.61 323.88 L 895.29 320.19 C898.42,318.16 900.98,315.78 900.99,314.90 C901.01,312.40 890.59,303.16 884.72,300.47 C881.81,299.14 876.00,297.54 871.81,296.92 C841.90,292.47 817.00,312.67 817.00,341.38 C817.00,354.86 820.86,364.86 829.62,374.04 C835.19,379.88 842.43,384.19 850.69,386.56 C858.03,388.67 875.00,387.85 882.13,385.04 ZM 1028.00 385.92 C1030.47,384.80 1033.74,382.70 1035.25,381.25 L 1038.00 378.63 L 1038.00 381.19 C1038.00,385.09 1040.07,386.14 1047.16,385.80 L 1053.50 385.50 L 1053.50 354.50 L 1053.50 323.50 L 1047.16 323.20 C1040.16,322.87 1038.00,323.91 1038.00,327.62 C1038.00,330.54 1037.53,330.58 1034.71,327.92 C1028.81,322.34 1017.73,320.48 1007.75,323.38 C1000.45,325.51 992.20,332.87 988.89,340.23 C985.60,347.56 985.47,362.26 988.64,369.12 C995.71,384.43 1014.02,392.25 1028.00,385.92 ZM 606.29 369.00 C606.73,359.38 607.30,350.07 607.57,348.32 C608.69,341.08 618.27,335.59 626.12,337.69 C629.65,338.63 630.22,338.52 631.53,336.65 C633.57,333.75 633.46,325.62 631.36,323.88 C629.29,322.17 619.37,322.21 615.99,323.96 C614.62,324.66 612.04,326.62 610.25,328.32 L 607.00 331.39 L 607.00 328.40 C607.00,324.11 605.35,323.00 599.00,323.00 C595.92,323.00 592.86,323.54 592.20,324.20 C591.32,325.08 591.00,333.34 591.00,355.15 C591.00,388.93 590.36,386.64 599.78,386.55 L 605.50 386.50 L 606.29 369.00 ZM 657.02 367.63 C657.05,348.81 658.05,344.46 663.36,340.29 C666.64,337.71 673.75,336.57 677.56,338.02 C681.52,339.53 683.00,337.29 683.00,329.78 C683.00,322.95 682.37,322.45 673.98,322.60 C667.87,322.72 663.77,324.45 660.00,328.50 L 657.50 331.18 L 657.00 327.34 L 656.50 323.50 L 649.91 323.21 C645.16,323.00 642.99,323.31 642.14,324.33 C641.29,325.36 641.04,333.90 641.23,355.62 L 641.50 385.50 L 648.00 386.00 C651.58,386.28 655.06,386.11 655.75,385.63 C656.67,384.99 657.01,380.18 657.02,367.63 ZM 1092.75 385.46 C1093.70,385.16 1094.00,379.48 1094.00,361.53 L 1094.00 338.00 L 1100.80 338.00 C1104.76,338.00 1108.10,337.50 1108.80,336.80 C1109.46,336.14 1110.00,333.01 1110.00,329.84 L 1110.00 324.08 L 1102.25 323.79 L 1094.50 323.50 L 1094.00 312.00 L 1093.50 300.50 L 1086.50 300.85 C1082.65,301.05 1079.16,301.41 1078.75,301.66 C1078.34,301.91 1078.00,306.82 1078.00,312.56 L 1078.00 323.00 L 1072.58 323.00 C1064.38,323.00 1064.00,323.32 1064.00,330.05 C1064.00,333.40 1064.49,336.19 1065.16,336.60 C1065.80,336.99 1068.95,337.22 1072.16,337.11 L 1078.00 336.90 L 1078.00 360.75 C1078.00,375.78 1078.38,384.98 1079.03,385.63 C1079.96,386.56 1089.66,386.44 1092.75,385.46 ZM 465.39 384.42 C465.73,383.55 466.00,370.02 466.00,354.36 C466.00,338.70 466.36,326.10 466.79,326.37 C467.23,326.64 473.13,335.00 479.90,344.94 C492.45,363.36 494.95,365.78 498.84,363.33 C499.68,362.80 505.86,354.31 512.56,344.47 C519.26,334.63 525.25,326.42 525.86,326.21 C526.65,325.95 527.05,334.33 527.23,355.67 L 527.50 385.50 L 535.00 385.50 L 542.50 385.50 L 542.50 342.00 L 542.50 298.50 L 534.34 298.21 L 526.19 297.92 L 512.84 317.25 C505.51,327.89 498.76,337.69 497.86,339.04 C496.96,340.39 496.02,341.27 495.78,341.00 C495.54,340.73 490.02,332.62 483.51,323.00 C465.37,296.17 467.19,298.00 458.62,298.00 C454.34,298.00 450.91,298.49 450.20,299.20 C449.30,300.10 449.00,311.10 449.00,342.53 C449.00,365.71 449.30,384.97 449.67,385.33 C450.03,385.70 453.59,386.00 457.56,386.00 C463.23,386.00 464.92,385.66 465.39,384.42 ZM 575.77 355.62 C575.95,334.41 575.70,325.34 574.89,324.37 C573.73,322.96 564.62,322.44 561.58,323.61 C560.19,324.14 560.00,327.80 560.00,354.44 C560.00,371.06 560.32,384.98 560.71,385.37 C561.09,385.76 564.58,385.95 568.46,385.79 L 575.50 385.50 L 575.77 355.62 ZM 783.00 366.50 C783.54,346.13 783.80,345.03 789.13,340.55 C791.98,338.14 793.00,337.90 799.31,338.10 C805.54,338.30 806.52,338.08 808.16,336.05 C810.54,333.11 810.65,325.79 808.35,323.87 C806.24,322.13 795.42,322.17 792.00,323.94 C790.62,324.66 788.04,326.62 786.25,328.32 L 783.00 331.39 L 783.00 328.40 C783.00,324.11 781.35,323.00 775.00,323.00 C771.92,323.00 768.86,323.54 768.20,324.20 C766.87,325.53 766.40,384.07 767.71,385.37 C768.09,385.76 771.58,385.95 775.46,385.79 L 782.50 385.50 L 783.00 366.50 ZM 930.39 384.42 C930.73,383.55 931.00,374.66 931.00,364.67 C931.01,348.42 931.21,346.16 932.96,343.30 C935.85,338.56 939.29,336.73 945.51,336.64 C951.99,336.55 955.88,338.93 957.69,344.09 C958.45,346.25 958.91,354.56 958.94,366.79 L 959.00 386.08 L 966.75 385.79 L 974.50 385.50 L 974.50 363.00 C974.50,338.97 974.16,336.87 969.20,330.13 C967.76,328.17 964.41,325.70 961.22,324.25 C956.48,322.07 954.81,321.81 948.92,322.30 C941.25,322.95 938.91,323.90 934.25,328.32 L 931.00 331.39 L 930.98 315.45 C930.98,306.68 930.60,298.92 930.15,298.20 C929.57,297.29 927.26,296.99 922.41,297.20 L 915.50 297.50 L 915.24 340.50 C915.10,364.15 915.19,384.06 915.46,384.75 C916.22,386.75 929.61,386.45 930.39,384.42 ZM 574.08 311.08 C580.27,304.88 576.65,295.00 568.18,295.00 C560.41,295.00 555.79,302.45 559.57,308.85 C563.01,314.67 569.49,315.66 574.08,311.08 ZM 158.00 466.00 C156.90,464.90 156.00,463.48 156.00,462.84 C156.00,459.55 185.26,335.23 186.96,331.30 C188.75,327.17 194.91,321.35 198.89,320.04 C204.41,318.21 211.19,319.21 216.79,322.67 C221.88,325.81 221.20,324.78 240.36,358.00 C246.23,368.17 251.44,377.16 251.95,377.96 C253.05,379.70 251.56,381.46 273.72,352.19 C282.64,340.40 291.64,329.51 293.72,327.99 C308.38,317.25 328.52,325.75 325.58,341.45 C324.76,345.81 316.61,356.79 284.03,397.50 C278.74,404.10 270.92,414.34 266.64,420.26 C258.25,431.86 255.46,434.00 248.80,434.00 C241.13,433.99 239.36,432.06 226.91,410.12 C220.63,399.06 215.25,390.01 214.94,390.01 C214.31,390.00 214.13,390.70 206.97,421.00 C204.17,432.83 201.22,444.34 200.42,446.60 C197.01,456.12 188.67,462.14 173.59,465.99 C163.66,468.52 160.52,468.52 158.00,466.00 ZM 315.50 460.05 C307.14,457.96 299.17,452.40 297.18,447.25 C295.64,443.28 292.00,423.00 292.00,418.41 C292.00,415.34 292.77,413.64 295.58,410.50 C297.55,408.30 302.45,401.55 306.48,395.50 C315.66,381.73 318.97,378.38 321.89,379.94 C323.04,380.55 324.18,382.06 324.43,383.28 C333.69,428.75 338.16,453.21 337.62,455.36 C336.68,459.10 332.25,461.02 324.80,460.90 C321.33,460.84 317.15,460.46 315.50,460.05 ZM 341.92 346.36 C341.17,344.95 339.37,343.62 337.80,343.31 C334.14,342.58 334.24,341.40 338.01,340.65 C339.93,340.26 341.45,339.11 342.20,337.46 L 343.38 334.87 L 344.76 337.52 C345.52,338.97 347.58,340.78 349.32,341.54 C351.90,342.66 352.09,342.93 350.34,342.96 C349.15,342.98 347.07,344.32 345.72,345.92 L 343.26 348.85 L 341.92 346.36 ZM 277.00 324.11 C277.00,320.96 273.62,317.79 269.44,317.03 C265.54,316.31 265.69,316.13 271.47,314.37 C274.22,313.54 275.73,311.60 277.64,306.50 C278.28,304.78 278.43,304.92 278.77,307.50 C279.27,311.31 282.66,315.00 285.67,315.00 C286.95,315.00 288.00,315.45 288.00,316.00 C288.00,316.55 287.08,317.00 285.95,317.00 C283.31,317.00 279.00,321.31 279.00,323.95 C279.00,325.08 278.55,326.00 278.00,326.00 C277.45,326.00 277.00,325.15 277.00,324.11 ZM 323.39 317.51 C322.18,314.96 320.28,312.94 318.14,311.93 L 314.79 310.35 L 318.14 309.41 C320.73,308.69 321.99,307.46 323.63,304.05 L 325.76 299.62 L 326.44 302.71 C327.27,306.51 329.46,308.56 333.92,309.71 L 337.33 310.58 L 333.10 311.85 C329.55,312.91 328.58,313.80 327.07,317.31 L 325.28 321.50 L 323.39 317.51 ZM 615.30 474.50 C611.90,472.12 610.60,466.89 612.37,462.67 C614.05,458.64 616.54,457.00 620.98,457.00 C628.54,457.00 633.21,462.80 631.01,469.46 C629.08,475.30 620.42,478.08 615.30,474.50 ZM 528.00 462.59 C528.00,461.81 529.44,459.97 531.19,458.49 C533.79,456.30 535.05,455.91 537.94,456.37 C541.52,456.94 545.00,460.02 545.00,462.61 C545.00,463.69 543.09,464.00 536.50,464.00 C529.85,464.00 528.00,463.69 528.00,462.59 ZM 653.00 462.59 C653.00,460.25 658.89,456.00 662.12,456.00 C665.34,456.00 670.00,459.82 670.00,462.45 C670.00,463.73 668.50,464.00 661.50,464.00 C654.85,464.00 653.00,463.69 653.00,462.59 ZM 1022.30 475.99 C1019.84,474.99 1017.00,470.19 1017.00,467.00 C1017.00,464.07 1019.65,459.26 1021.94,458.03 C1025.75,455.99 1030.96,456.80 1034.08,459.92 C1042.02,467.86 1032.93,480.27 1022.30,475.99 ZM 772.00 465.20 C772.00,464.77 773.55,460.61 775.45,455.97 L 778.91 447.53 L 780.48 451.30 C781.35,453.37 783.14,457.53 784.47,460.53 L 786.89 466.00 L 779.44 466.00 C775.35,466.00 772.00,465.64 772.00,465.20 ZM 849.84 466.18 C848.36,465.58 848.57,464.52 851.75,456.76 L 855.34 448.02 L 859.19 456.69 C862.15,463.33 862.75,465.54 861.78,466.16 C860.25,467.13 852.19,467.14 849.84,466.18 ZM 714.50 372.34 C706.92,368.34 703.99,363.30 704.02,354.28 C704.04,346.68 706.94,341.47 712.91,338.33 C717.96,335.66 724.71,335.27 728.80,337.41 C731.87,339.02 736.22,343.46 737.88,346.68 C739.43,349.71 739.28,359.40 737.62,363.28 C733.81,372.20 722.58,376.60 714.50,372.34 ZM 1012.50 372.33 C1005.67,368.73 1002.04,362.71 1002.04,355.00 C1002.04,342.97 1011.56,334.76 1023.45,336.54 C1031.71,337.78 1036.79,343.05 1038.50,352.14 C1039.92,359.70 1034.49,369.64 1027.30,372.65 C1023.01,374.44 1016.21,374.30 1012.50,372.33 Z" fill="rgb(253,253,253)"/>
</g>
</svg>